<?xml version="1.0" encoding="UTF-8"?><svg xmlns="http://www.w3.org/2000/svg" xmlns:xlink="http://www.w3.org/1999/xlink" height="1777.7" preserveAspectRatio="xMidYMid meet" version="1.0" viewBox="472.7 609.3 2210.0 1777.7" width="2210.0" zoomAndPan="magnify"><g id="change1_1"><path d="M862.38,2000.95c-147.99,145.56-389.64,323-389.64,323c109.08-99.82,479.67-124.02,562.36-112.61 c147.47,59.24,295.28,104.94,338.04,112.67c348.05,62.97,949.79,16.72,1150-405.83c113.38-239.28,62.12-523.53-56.43-717.1 C2201.49,768,1529.04,673.89,1084.05,921.05c-260.31,144.59-501.63,469.9-420.08,830.55 C691.68,1874.14,776.26,1925.34,862.38,2000.95z" fill="#c6c4a3"/></g><g id="change2_1"><path d="M2651.5,1700.17c-0.96,0-1.94-0.07-2.93-0.21c-10.93-1.6-18.49-11.76-16.89-22.69 c9.79-66.76,10.93-136.17,3.39-206.3c-7.09-65.96-21.74-131.71-43.54-195.44c-21.06-61.57-48.26-119.77-80.84-172.97 c-5.77-9.42-2.81-21.73,6.61-27.5c9.42-5.77,21.73-2.81,27.5,6.61c34.11,55.7,62.57,116.57,84.58,180.92 c22.76,66.53,38.05,135.2,45.46,204.1c7.9,73.48,6.7,146.28-3.58,216.38C2669.81,1693.01,2661.26,1700.17,2651.5,1700.17z" fill="#fdfcdc"/></g><g id="change2_2"><path d="M2134.31,768.9c-2.85,0-5.75-0.61-8.51-1.91c-152.64-71.88-328.91-109.88-509.74-109.88 c-101.47,0-201.8,11.92-298.21,35.42c-10.73,2.62-21.55-3.96-24.17-14.69c-2.62-10.73,3.96-21.55,14.69-24.17 c99.51-24.26,203.03-36.56,307.68-36.56c186.69,0,368.85,39.31,526.79,113.69c9.99,4.71,14.28,16.62,9.57,26.62 C2149.01,764.65,2141.82,768.9,2134.31,768.9z" fill="#fdfcdc"/></g><g id="change2_4"><path d="M621.67,1170.22c-3.97,0-7.97-1.18-11.46-3.63c-9.04-6.34-11.23-18.81-4.89-27.86 c54.38-77.56,120.87-151.08,197.6-218.5c8.3-7.29,20.93-6.48,28.23,1.82c7.29,8.3,6.47,20.93-1.82,28.23 c-74.34,65.32-138.69,136.45-191.25,211.41C634.17,1167.25,627.97,1170.22,621.67,1170.22z" fill="#fdfcdc"/></g><g id="change2_3"><path d="M748.72,1998.15c-147.99,145.56-275.99,325.8-275.99,325.8c109.08-99.82,392.74-140.2,564.08-155.85 c147.47,59.24,282.11,83.6,324.88,91.34c348.05,62.97,949.79,16.72,1150-405.83c113.38-239.28,62.12-523.53-56.43-717.1 C2190.04,703.43,1517.6,609.31,1072.6,856.47c-260.31,144.59-587.79,486.49-506.24,847.14 C594.07,1826.15,662.61,1922.54,748.72,1998.15z" fill="#fdfcdc"/></g></svg>