<?xml version="1.0" encoding="UTF-8"?><svg xmlns="http://www.w3.org/2000/svg" xmlns:xlink="http://www.w3.org/1999/xlink" height="659.2" preserveAspectRatio="xMidYMid meet" version="1.0" viewBox="-2.8 -1.8 1825.4 659.2" width="1825.4" zoomAndPan="magnify"><g id="change1_1"><path d="M1045.23,212.86c0.33-13.35-4.89-24.85-14.72-32.39c-6.62-5.08-14.8-7.83-23.29-8.03 c-4.39-3.78-9.24-7-14.5-9.65c-30.67-15.42-65.71-3.98-89.27,29.15c-11.89,16.71-21.51,35.62-28.68,55.83 c-3.14-25.28-9.03-63.85-34.13-81.85c-8.38-6.01-22.61-12.29-42.86-8.08c-12.19,2.53-23.31,8.53-33.28,17.93 c-4.36-7.23-10.92-13.05-19.05-16.62c-13.96-6.14-30.39-4.67-41.85,3.74c-1.68,1.23-3.2,2.59-4.6,4.04 c-2.19-8.58-7.25-15.93-14.74-21.07c-0.36-0.25-0.74-0.47-1.1-0.7c4.17-1.97,8.03-4.61,11.27-7.81 c7.83-7.75,12.45-19.07,12.04-29.55c-0.63-16.23-10.29-30.29-24.83-36.5c-6.58-3.8-14.06-5.87-21.71-5.99 c-8.12-0.12-16.04,1.88-22.97,5.81c-2.81,1.6-12.08,7.43-16.9,17.28c-3.32,5.99-5.02,12.5-5.09,19.39c0,0.04,0,0.08,0,0.13 c-0.02,7.25,1.8,14.11,5.43,20.47c4.27,7.4,10.71,13.09,18.35,16.55c-11.36,6.76-18.65,18.48-19.71,32.05l-8.65,111.39 c0.02-0.55,0.04-1.12,0.07-1.67c0.22-5.7,0.72-11.97,1.25-18.61c2.36-29.36,5.3-65.89-14.32-93.56c-7.81-11.01-20.8-18.2-33.9-18.77 c-11.74-0.49-22.4,4.15-30,13.11c-1.09,1.28-2.17,2.58-3.23,3.89c-2.88-5.92-6.73-11.19-11.84-15.43 c-7.25-6.02-19.92-12.27-39.17-7.81c-18.25,4.22-29.41,16.98-37.08,29.66c-4.01-8.11-9.18-15.71-15.91-22.52 c-15.98-16.2-40.44-16.16-56.91,0.09c-5.97,5.89-9.82,12.86-11.55,20.13c-15.33-18.11-35.04-27.4-56.46-26.4 c-26.94,1.27-51.47,20.29-65.6,50.88c-13.45,29.12-17.61,61.64-19.9,89.61c-0.19,2.29-0.38,4.62-0.56,7 c-4.96-2.25-10.36-3.6-15.88-3.82c-14.49-0.61-27.38,6.28-35.34,18.85l-1.9,3c-10.24,16.23-20.83,33.02-35.33,40.53 c-11.69,6.05-21.61,3.21-29.48-8.45c-9.67-14.31-12.37-34.98-14.31-54.92c-2.37-24.4-2.43-48.83-0.16-72.61 c5.34-55.97,19.81-96.59,41.84-117.46c8.64-8.18,22.51-14.14,31.21-9.06c7.77,4.54,13.03,17.54,14.83,36.6 c2.47,26.15,25.66,39.71,46.65,37.74c21.98-2.07,36.44-19.46,34.37-41.34c-1.89-20.06-7.69-49.16-24.54-73.85 c-17.23-25.24-42.07-39.73-71.83-41.89c-29.35-2.13-57.43,7.8-81.21,28.74c-23.74,20.9-38.17,47.91-46.1,66.88 C6.71,158.01-2.77,217.67,0.7,279.37c1.37,24.46,3.99,53.08,13,79.94c10.76,32.08,28.97,55.46,54.13,69.51 c15.33,8.56,31.1,12.83,46.91,12.83c18.28,0,36.63-5.71,54.46-17.1c17.45-11.15,34.28-27.59,50.22-48.99 c0.58,2.05,1.22,4.09,1.91,6.11c10.81,31.42,33.69,53.35,61.2,58.65c4.43,0.85,8.75,1.26,12.97,1.26 c32.62,0,58.53-24.13,70.76-50.67c5.41-11.74,9.55-23.88,12.7-36.12c-0.39,11.78-1.03,23.67-1.95,35.65 c-1.61,20.96,13.2,38.38,35.2,41.42c17.59,2.43,33.23-5.35,40.8-19.21c5.55,13.59,18.84,23.51,35.46,25.05 c15.77,1.45,29.52-5.43,36.84-17.32c4.48,15.54,18.24,26.67,35.96,27.58c0.77,0.04,1.54,0.06,2.31,0.06 c18.52,0,34.06-11.48,39.43-28.06c4.55,14.47,17.39,24.95,34.07,26.24c1.09,0.08,2.18,0.13,3.28,0.13 c19.75,0,40.16-13.64,42.06-38.11l12.02-154.77c3.07,42.17,4.43,84.66,4.06,126.91c-0.38,7.87-0.48,15.13-0.3,22.19 c0.57,22.54,18.09,39.51,40.78,39.51c0.02,0,0.04,0,0.06,0c22.5-0.03,39.84-16.94,40.35-39.34c0.12-5.1,0.17-10.23,0.23-15.19 l0.02-2.21c1.36-29.58,8.04-58.19,14.39-82.3l1.01-3.83c0.93-3.52,1.84-6.99,2.76-10.4c0.24,3.01,0.47,6.05,0.67,9.1 c2.23,33.39,1.74,68.42-1.47,104.1c-1.27,14.17,4.3,26.74,15.3,34.48c6.78,4.77,15.12,7.21,23.61,7.21c6.28,0,12.64-1.34,18.5-4.05 c10.85-5.03,18.69-14.21,22.02-25.39c9.84,15.88,22.59,23.6,33.61,27.28c17.56,5.86,35.24,3.64,51.12-6.43 c0.24-0.15,0.48-0.31,0.73-0.47c-1.13,10.22-2.53,19.93-4.21,29.3c-5.37,29.97-15.14,73.02-37.81,100.66 c-6.93,8.44-16.99,13.65-19.72,11.52c-4.46-3.46-3.55-21.9-3.16-29.78c0.08-1.59,0.16-3.13,0.21-4.59 c0.59-14.49-5.81-27.07-17.55-34.49c-12.44-7.87-29.08-8.45-42.39-1.46c-12.89,6.76-20.62,19.18-21.23,34.07 c-0.97,23.89,1.57,68.11,29.51,95.79c14.43,14.3,33.64,21.78,55.8,21.78c1.66,0,3.33-0.04,5.02-0.13 c29.43-1.46,55.07-15.43,76.2-41.52c14.11-17.41,26.3-40.39,37.25-70.25c29.55-80.49,27.72-165.68,25.95-248.07 C1045.15,269.51,1044.53,240.6,1045.23,212.86z M299.98,331.99c-0.98,5.08-2.16,11.2-3.73,16.61c-6.31-27.99,1.62-68.75,4.32-82.62 l0.52-2.69c0.93-4.82,1.95-10.14,3.25-15.19c2.94,26.9,1.84,53.27-3.3,78.52C300.69,328.34,300.34,330.14,299.98,331.99z M950.8,277.21c0.84-2.46,1.71-4.86,2.6-7.19c-2.86,11.58-6.16,23.09-9.87,34.44C945.26,295.46,947.69,286.33,950.8,277.21z M1805.45,533.16c-7.9,11.53-20.76,17.49-35.27,16.37c-211.33-16.35-423.82-15.69-631.56,1.98c-1.24,0.1-2.47,0.16-3.69,0.16 c-13.8,0-26.53-6.63-34.58-18.19c-8.73-12.53-10.5-28.88-4.5-41.65c5.54-11.8,16.69-19.25,30.6-20.44 c216.98-18.45,435.32-19.42,648.96-2.89c14.81,1.15,26.88,9.29,33.13,22.33C1815.01,504.36,1813.8,520.97,1805.45,533.16z M1133.94,150.15c1.33,0,2.68-0.06,4.03-0.19c28.81-2.68,57.72-4.99,86.72-6.94c-0.54,0.14-1.07,0.28-1.61,0.44 c-27.01,7.98-44.27,32.49-55.69,48.71c-10.23,14.52-23.94,36.77-31.19,60.32c-12.61,40.91,0.89,64.57,14.43,77.21 c24.9,23.24,60.49,16.04,72.19,13.68c3.03-0.61,5.96-1.32,8.81-2.07c-3.18,3.25-6.8,6.69-10.83,10.19 c-13.13,11.39-23.26,16.94-28.78,18.96c-8.02-19.24-28.54-28.89-49.56-22.63c-21.81,6.5-33.42,27.64-27.01,49.15 c6.51,21.84,21.37,38.57,41.84,47.11c10.14,4.23,21.46,6.32,33.08,6.32c16.33,0,33.26-4.12,48.36-12.18 c22.59-12.06,43.44-28.13,58.69-45.25c2.74-3.08,5.3-6.17,7.68-9.3c0.36,1.16,0.73,2.32,1.13,3.47 c10.81,31.42,33.69,53.35,61.2,58.65c4.43,0.85,8.75,1.26,12.97,1.26c32.62,0,58.53-24.13,70.75-50.67c0.98-2.13,1.92-4.3,2.84-6.47 c11.64,27.69,33.11,46.8,58.54,51.7c4.43,0.85,8.75,1.26,12.97,1.26c26.92,0,49.25-16.43,63.11-37.09 c1.08,20.05,16.17,35.91,36.98,37.84c22.4,2.07,41.26-13.12,43.87-35.37c0.59-5.06,1.13-10.16,1.65-15.08l0.23-2.22 c4.14-29.33,13.47-57.18,22.06-80.58l1.36-3.7c1.25-3.42,2.49-6.79,3.73-10.11c-0.04,3.02-0.1,6.07-0.19,9.12 c-0.92,33.45-4.7,68.27-11.26,103.5c-2.6,13.99,1.77,27.03,11.99,35.77c7.34,6.27,17.07,9.6,27,9.6c4.92,0,9.88-0.82,14.62-2.49 c13.98-4.94,23.96-16.68,26.7-31.39c9.31-50.04,13.29-100.64,11.83-150.38l-0.09-3.29c-0.68-25.2-1.82-67.37-26.39-88.77 c-7.78-6.77-21.36-14.36-41.91-12.08c-12.38,1.38-24.01,6.3-34.82,14.73c-3.66-7.61-9.64-14.02-17.4-18.34 c-13.33-7.42-29.82-7.51-42.02-0.21c-9.79,5.85-15.86,15.59-17.18,27.22c-6.28-8.5-13.93-14.78-20.71-20.05 c-18.5-14.38-39.75-19.61-59.85-14.72c-22.2,5.4-41.56,22.83-53.1,47.81c-0.98,2.13-1.9,4.28-2.79,6.44 c-0.02-0.06-0.05-0.11-0.07-0.17c0,0,0,0,0,0c-1.98-4.59-4.28-8.85-6.85-12.68c-6.56-9.77-15.03-16.74-22.45-22.51 c-18.5-14.38-39.75-19.61-59.85-14.72c-22.2,5.4-41.56,22.83-53.1,47.81c-8.66,18.73-13.45,38.87-16.39,58.3 c-5.24-4.02-11.19-7.13-17.73-9.16c-23.39-7.25-45.34-1.28-64.69,3.99c-0.15,0.04-0.3,0.08-0.45,0.12 c4.45-9.14,9.72-17.87,15.68-25.96c0.71-0.95,1.88-2.4,3.26-4.03c9.56,4.8,21.14,5.15,32.43,0.15 c19.32-8.56,32.93-31.82,22.26-55.91c-8.06-18.19-25.37-30.14-45-32.89c151.03-9.01,304.18-8.06,456.74,2.88 c22.46,1.62,40.64-14.38,42.28-37.2c1.67-23.35-14.35-42.2-37.28-43.85c-193.12-13.85-390.37-11.62-586.26,6.62 c-13.94,1.3-25.07,8.87-30.54,20.78c-5.91,12.87-4.03,29.23,4.79,41.69C1107.74,143.68,1120.32,150.15,1133.94,150.15z M1385.94,332.13c-0.35,1.72-0.7,3.52-1.05,5.37c-0.98,5.08-2.16,11.2-3.73,16.61c-6.31-27.98,1.62-68.75,4.32-82.62l0.52-2.69 c0.93-4.82,1.95-10.13,3.25-15.19C1392.17,280.52,1391.07,306.88,1385.94,332.13z M1531.04,327.95c-0.35,1.72-0.7,3.52-1.05,5.37 c-0.98,5.09-2.16,11.2-3.73,16.61c-6.31-27.98,1.62-68.75,4.32-82.62l0.52-2.69c0.93-4.82,1.95-10.14,3.25-15.19 C1537.28,276.33,1536.17,302.7,1531.04,327.95z" fill="#D1D3D4"/></g><g id="change2_1"><path d="M1053.52,201.91c0.33-13.35-4.89-24.85-14.72-32.39c-6.62-5.08-14.8-7.83-23.29-8.04 c-4.39-3.78-9.24-7-14.5-9.65c-30.67-15.41-65.71-3.98-89.27,29.15c-11.89,16.71-21.51,35.62-28.68,55.83 c-3.14-25.28-9.03-63.85-34.13-81.85c-8.38-6.01-22.62-12.29-42.86-8.08c-12.16,2.53-23.24,8.5-33.2,17.86 c-8.84-14.75-26.06-21.81-41.91-20.06c-9.69,1.06-17.84,5.13-23.69,11.23c-2.2-8.55-7.25-15.88-14.72-21 c-0.36-0.25-0.74-0.47-1.1-0.7c4.17-1.97,8.03-4.61,11.27-7.81c7.84-7.75,12.45-19.07,12.04-29.55 c-0.63-16.23-10.29-30.29-24.83-36.5c-6.58-3.8-14.06-5.87-21.71-5.99c-8.12-0.12-16.04,1.88-22.97,5.81 c-2.81,1.6-12.08,7.43-16.9,17.28c-3.32,5.99-5.02,12.5-5.08,19.39c0,0.04,0,0.08,0,0.13c-0.02,7.25,1.8,14.11,5.44,20.47 c4.27,7.4,10.71,13.09,18.35,16.55c-11.36,6.76-18.65,18.48-19.71,32.05l-8.65,111.39c0.02-0.56,0.04-1.12,0.07-1.68 c0.22-5.7,0.72-11.97,1.25-18.61c2.36-29.36,5.3-65.89-14.32-93.56c-7.81-11.01-20.8-18.2-33.9-18.77 c-11.75-0.49-22.4,4.15-30,13.11c-1.09,1.28-2.17,2.58-3.23,3.89c-2.88-5.92-6.73-11.19-11.84-15.43 c-7.25-6.02-19.92-12.27-39.17-7.81c-18.25,4.22-29.41,16.98-37.08,29.66c-4.01-8.11-9.18-15.71-15.91-22.52 c-15.98-16.2-40.44-16.16-56.91,0.09c-5.97,5.89-9.82,12.86-11.55,20.13c-15.33-18.11-35.04-27.4-56.46-26.4 c-26.94,1.27-51.47,20.29-65.6,50.88c-13.45,29.12-17.61,61.64-19.9,89.61c-0.19,2.29-0.38,4.62-0.56,7 c-4.96-2.25-10.36-3.6-15.88-3.82c-14.48-0.62-27.38,6.28-35.34,18.85l-1.9,3c-10.24,16.23-20.83,33.02-35.33,40.53 c-11.69,6.05-21.61,3.21-29.48-8.45c-9.67-14.31-12.37-34.98-14.31-54.92c-2.37-24.4-2.43-48.83-0.16-72.61 c5.34-55.97,19.81-96.59,41.84-117.46c8.64-8.18,22.51-14.14,31.21-9.06c7.77,4.54,13.03,17.54,14.83,36.6 c2.47,26.14,25.66,39.72,46.65,37.74c21.98-2.07,36.44-19.46,34.37-41.34c-1.89-20.07-7.69-49.17-24.54-73.85 c-17.23-25.24-42.07-39.73-71.83-41.89c-29.35-2.13-57.43,7.8-81.21,28.74c-23.74,20.9-38.17,47.91-46.1,66.88 C15,147.07,5.53,206.72,8.99,268.43c1.37,24.46,3.99,53.08,13,79.94c10.76,32.08,28.97,55.46,54.13,69.51 c15.33,8.56,31.09,12.83,46.91,12.83c18.28,0,36.63-5.71,54.46-17.1c17.45-11.15,34.28-27.59,50.22-48.99 c0.58,2.05,1.22,4.09,1.91,6.11c10.81,31.42,33.69,53.35,61.2,58.65c4.43,0.85,8.75,1.26,12.97,1.26 c32.62,0,58.53-24.13,70.76-50.67c5.41-11.74,9.55-23.88,12.7-36.12c-0.39,11.78-1.03,23.67-1.95,35.65 c-1.61,20.96,13.2,38.38,35.2,41.42c17.59,2.42,33.23-5.35,40.8-19.21c5.55,13.59,18.84,23.51,35.46,25.05 c15.77,1.46,29.52-5.43,36.83-17.32c4.48,15.54,18.24,26.67,35.96,27.58c0.77,0.04,1.54,0.06,2.31,0.06 c18.47,0,33.97-11.42,39.38-27.92c2.42,7.79,7.28,14.46,14.23,19.23c6.75,4.63,14.97,6.99,23.31,6.99c6.43,0,12.93-1.4,18.89-4.25 c13.27-6.34,21.87-19,23.03-33.85l12.02-154.77c3.07,42.17,4.43,84.66,4.06,126.91c-0.38,7.87-0.48,15.13-0.3,22.19 c0.57,22.54,18.09,39.51,40.78,39.51c0.02,0,0.04,0,0.06,0c22.5-0.03,39.84-16.94,40.35-39.34c0.12-5.1,0.17-10.23,0.23-15.19 l0.02-2.21c1.36-29.58,8.04-58.19,14.39-82.3l1-3.81c0.93-3.52,1.84-6.99,2.76-10.41c0.24,3.01,0.47,6.05,0.67,9.1 c2.23,33.39,1.74,68.41-1.47,104.1c-1.27,14.17,4.3,26.74,15.3,34.48c6.78,4.77,15.12,7.21,23.61,7.21c6.28,0,12.64-1.34,18.5-4.05 c10.85-5.03,18.69-14.21,22.02-25.39c9.84,15.88,22.59,23.6,33.61,27.28c17.56,5.86,35.23,3.64,51.12-6.43 c0.24-0.15,0.48-0.31,0.72-0.47c-1.13,10.22-2.53,19.93-4.21,29.3c-5.37,29.97-15.14,73.02-37.81,100.66 c-6.93,8.44-16.98,13.65-19.72,11.52c-4.46-3.46-3.55-21.9-3.16-29.78c0.08-1.59,0.16-3.13,0.21-4.59 c0.59-14.49-5.81-27.07-17.55-34.49c-12.44-7.87-29.08-8.44-42.39-1.46c-12.89,6.76-20.62,19.18-21.23,34.07 c-0.97,23.89,1.57,68.11,29.51,95.79c14.43,14.3,33.64,21.78,55.8,21.78c1.65,0,3.33-0.04,5.02-0.13 c29.43-1.46,55.07-15.43,76.2-41.52c14.11-17.41,26.3-40.39,37.25-70.24c29.55-80.49,27.72-165.68,25.95-248.07 C1053.44,258.57,1052.82,229.66,1053.52,201.91z M308.28,321.05c-0.98,5.09-2.16,11.2-3.73,16.61c-6.31-27.99,1.62-68.75,4.32-82.62 l0.52-2.69c0.93-4.82,1.95-10.13,3.25-15.19c2.94,26.9,1.84,53.27-3.3,78.51C308.98,317.39,308.64,319.19,308.28,321.05z M959.09,266.27c0.84-2.46,1.71-4.86,2.6-7.19c-2.86,11.58-6.16,23.09-9.87,34.44C953.55,284.52,955.98,275.38,959.09,266.27z M1820.83,501.76c-1.76,22.73-19.98,38.56-42.36,36.83c-211.33-16.36-423.82-15.69-631.56,1.97c-1.24,0.1-2.47,0.16-3.69,0.16 c-13.8,0-26.53-6.63-34.58-18.19c-8.73-12.53-10.5-28.88-4.5-41.65c5.54-11.8,16.69-19.25,30.6-20.44 c216.97-18.45,435.31-19.42,648.96-2.89C1806.68,459.34,1822.65,478.34,1820.83,501.76z M1141.97,139.22c1.41,0,2.84-0.07,4.3-0.2 c28.81-2.68,57.72-4.99,86.72-6.94c-0.54,0.14-1.07,0.28-1.61,0.44c-27.01,7.98-44.27,32.49-55.69,48.71 c-10.23,14.52-23.94,36.77-31.19,60.32c-12.61,40.91,0.89,64.57,14.43,77.21c24.9,23.24,60.49,16.04,72.19,13.68 c3.03-0.61,5.96-1.32,8.81-2.07c-3.18,3.25-6.8,6.69-10.83,10.19c-13.13,11.39-23.26,16.94-28.78,18.96 c-8.02-19.24-28.54-28.89-49.56-22.63c-21.81,6.5-33.42,27.64-27.01,49.16c6.51,21.84,21.37,38.57,41.84,47.11 c10.14,4.23,21.46,6.32,33.09,6.32c16.33,0,33.26-4.12,48.36-12.18c22.59-12.06,43.44-28.13,58.69-45.25 c2.74-3.08,5.3-6.17,7.68-9.3c0.36,1.16,0.73,2.32,1.13,3.47c10.81,31.42,33.69,53.35,61.2,58.65c4.43,0.85,8.75,1.26,12.97,1.26 c32.62,0,58.53-24.13,70.76-50.67c0.98-2.13,1.92-4.29,2.84-6.47c11.64,27.69,33.11,46.8,58.54,51.7c4.43,0.85,8.75,1.26,12.97,1.26 c26.92,0,49.25-16.44,63.11-37.09c1.08,20.05,16.17,35.91,36.98,37.84c22.4,2.08,41.26-13.12,43.87-35.37 c0.59-5.06,1.13-10.16,1.65-15.08l0.23-2.22c4.14-29.33,13.47-57.18,22.06-80.58l1.37-3.72c1.25-3.42,2.48-6.78,3.72-10.09 c-0.04,3.02-0.1,6.06-0.19,9.12c-0.92,33.45-4.7,68.27-11.26,103.5c-2.6,13.99,1.77,27.03,11.99,35.77c7.33,6.27,17.07,9.6,27,9.6 c4.92,0,9.88-0.82,14.62-2.49c13.98-4.94,23.96-16.68,26.7-31.39c9.31-50.04,13.29-100.64,11.83-150.38l-0.09-3.29 c-0.68-25.2-1.82-67.37-26.39-88.77c-7.78-6.77-21.36-14.36-41.91-12.08c-12.38,1.38-24.01,6.3-34.82,14.73 c-3.66-7.61-9.64-14.02-17.4-18.34c-13.33-7.42-29.82-7.51-42.02-0.21c-9.79,5.85-15.86,15.59-17.18,27.22 c-6.28-8.5-13.93-14.78-20.71-20.05c-18.5-14.38-39.75-19.61-59.85-14.72c-22.2,5.4-41.56,22.83-53.1,47.81 c-0.98,2.13-1.9,4.28-2.79,6.44c-0.02-0.06-0.05-0.11-0.07-0.17c-1.98-4.59-4.28-8.86-6.85-12.68 c-6.56-9.77-15.03-16.74-22.45-22.51c-18.5-14.38-39.75-19.61-59.85-14.72c-22.2,5.4-41.56,22.83-53.1,47.81 c-8.66,18.73-13.45,38.87-16.39,58.3c-5.24-4.02-11.19-7.13-17.73-9.16c-23.39-7.25-45.34-1.28-64.69,3.99 c-0.15,0.04-0.3,0.08-0.45,0.12c4.45-9.14,9.72-17.87,15.68-25.96c0.71-0.95,1.88-2.4,3.26-4.03c9.56,4.81,21.14,5.15,32.43,0.15 c19.32-8.56,32.93-31.82,22.26-55.91c-8.06-18.19-25.37-30.14-45-32.89c151.03-9.01,304.18-8.06,456.74,2.88 c22.46,1.62,40.64-14.38,42.28-37.2c1.67-23.35-14.35-42.21-37.28-43.85c-193.12-13.85-390.36-11.62-586.26,6.62 c-21.6,2.01-35.82,19.18-33.8,40.83C1101.83,119.82,1117.88,139.22,1141.97,139.22z M1394.23,321.18c-0.35,1.72-0.7,3.52-1.05,5.38 c-0.98,5.08-2.16,11.2-3.73,16.61c-6.31-27.99,1.62-68.75,4.32-82.62l0.52-2.69c0.93-4.82,1.95-10.14,3.25-15.19 C1400.47,269.57,1399.36,295.94,1394.23,321.18z M1539.34,317c-0.35,1.72-0.7,3.52-1.05,5.37c-0.98,5.08-2.16,11.2-3.73,16.61 c-6.31-27.99,1.62-68.75,4.32-82.62l0.52-2.69c0.93-4.82,1.95-10.13,3.25-15.19C1545.57,265.39,1544.47,291.76,1539.34,317z" fill="#FFF"/></g><linearGradient gradientUnits="userSpaceOnUse" id="a" x1="1465.288" x2="1465.288" xlink:actuate="onLoad" xlink:show="other" xlink:type="simple" xmlns:xlink="http://www.w3.org/1999/xlink" y1="418.039" y2="145.055"><stop offset="0" stop-color="#9e6eaf"/><stop offset=".225" stop-color="#b179b4"/><stop offset=".731" stop-color="#db92bf"/><stop offset=".979" stop-color="#ed9ec4"/></linearGradient><path d="M1607.95,196.63c-1.44-3.35-3.11-6.49-5.05-9.37c-4.73-7.04-11.34-12.57-18.04-17.78 c-32.18-25.01-65.84-9.26-81.92,25.55c-11.84,25.63-15.8,54.83-18.09,82.72c-2.21,26.98-4.5,56.38,4.47,82.44 c7.28,21.16,22.81,40.84,45.77,45.26c27.33,5.27,50.57-14.55,61.34-37.92c13.59-29.49,19.44-62.23,20.1-94.56 C1617,250.5,1617.59,219.02,1607.95,196.63z M1569.74,315.86c-2.6,12.8-5.08,30.42-13.34,41.22c-13.62,17.82-25.29,2.17-29.84-13.08 c-8.53-28.61-2.92-67.87,2.7-96.73c2.82-14.5,5.95-33.35,15.92-44.97c11.08-12.94,18.1,2.05,23.03,12.44 c1.05,2.22,2.32,4.04,3.74,5.51C1576.57,251.94,1576.13,284.42,1569.74,315.86z M1462.84,200.82c-1.44-3.35-3.11-6.49-5.05-9.37 c-4.73-7.04-11.34-12.57-18.04-17.78c-32.18-25.01-65.84-9.26-81.92,25.55c-11.84,25.63-15.8,54.83-18.09,82.72 c-2.21,26.98-4.5,56.38,4.47,82.44c7.28,21.16,22.81,40.84,45.77,45.26c27.33,5.27,50.57-14.55,61.34-37.92 c13.59-29.49,19.44-62.23,20.1-94.56C1471.89,254.68,1472.49,223.2,1462.84,200.82z M1424.63,320.04 c-2.6,12.8-5.08,30.42-13.34,41.22c-13.62,17.82-25.29,2.17-29.84-13.08c-8.53-28.61-2.92-67.87,2.7-96.73 c2.82-14.5,5.95-33.35,15.92-44.97c11.08-12.94,18.1,2.05,23.03,12.44c1.05,2.22,2.32,4.04,3.74,5.51 C1431.46,256.12,1431.02,288.6,1424.63,320.04z M1766.03,400.82c-4.73,25.42-44.97,21.54-40.21-4.03 c6.55-35.24,10.61-70.83,11.59-106.67c0.47-17.29,0.29-34.58-0.72-51.85c-0.4-6.88-2.16-14.45-2-21.28c-0.16-1.2-0.44-2.36-0.8-3.5 c-0.7,0.41-1.54,0.86-2.64,1.36c-7.4,11.49-16.64,20-22.64,32.85c-5.98,12.82-10.77,26.24-15.64,39.51 c-10.26,27.93-19.08,55.86-23.17,85.12c-0.61,5.81-1.22,11.61-1.9,17.42c-3.04,25.91-42,21.88-40.21-4.03 c0.49-7.03,1.28-14.02,2.28-20.97c6.41-61.83,9.17-123.91,8.22-186.09c-0.4-26,39.82-21.67,40.21,4.03 c0.18,11.63,0.18,23.25,0.1,34.87c12.21-22.69,29.53-44.62,53.25-47.26c44.98-5,44.9,55.15,45.76,84.45 C1778.96,303.8,1775,352.6,1766.03,400.82z M1327.2,303.75c-0.36,44.17-43.31,81.1-79.36,100.35 c-34.08,18.19-81.7,12.59-94.13-29.09c-7.46-25.02,31.62-35.38,39.03-10.52c11.55,38.75,89.43-34.29,93.38-54.76 c2.94-15.19-3.64-13.42-16.72-10.75c-10.77,2.2-21.13,6.08-31.9,8.26c-18.06,3.65-39.7,4.96-54.23-8.6 c-30.92-28.86,0.8-84.29,19.53-110.88c11.27-16,25.08-35.07,44.8-40.89c18.3-5.41,39.4,1.35,47.47,19.56 c10.46,23.61-24.49,43.94-35.01,20.2c-1.82-4.11-18.42,16.11-20.71,19.22c-7.25,9.84-13.58,20.5-18.77,31.57 c-2.78,5.94-12.02,21.85-9.42,28.89c2.37,6.43,15.07,2.1,21.65,0.56c21.42-5.01,44.2-14.46,66.39-7.58 C1318.54,265.28,1327.35,284.57,1327.2,303.75z" fill="url(#a)"/><g id="change3_1"><path d="M81.27,202.4c-2.42,25.42-2.31,51.11,0.16,76.52c2.11,21.68,5.23,45.89,17.71,64.36 c13.24,19.6,34.36,26.23,55.76,15.15c20.48-10.61,33.15-31.9,45.08-50.73c13.9-21.95,48.73-1.44,34.78,20.59 c-29.09,45.94-79.04,99.63-138.28,66.56c-46.36-25.88-54.02-85.02-56.7-132.77c-3.1-55.18,4.45-112.34,25.84-163.52 c18.32-43.83,54.7-86.95,107.01-83.14c51.47,3.75,73.27,51.95,77.55,97.32c2.44,25.91-37.99,25.42-40.41-0.23 c-1.76-18.68-7.39-42.1-24.85-52.3c-18.33-10.71-41.35-1.56-55.52,11.86C96.57,103.15,85.38,159.31,81.27,202.4z M366.44,366.21 c-10.77,23.37-34.02,43.19-61.34,37.92c-22.96-4.43-38.49-24.1-45.77-45.26c-8.97-26.06-6.68-55.46-4.47-82.44 c2.28-27.89,6.24-57.09,18.09-82.72c8.89-19.24,25.36-37.99,48.05-39.06c19.88-0.94,35,10.96,45.32,26.38 c5.9,1.53,10.85,5.98,12.4,14.04C389.18,249.54,390.17,314.72,366.44,366.21z M341.94,218.92c-1.42-1.47-2.68-3.3-3.74-5.51 c-4.93-10.39-11.94-25.37-23.02-12.44c-9.96,11.63-13.1,30.48-15.92,44.97c-5.61,28.86-11.23,68.12-2.7,96.73 c4.55,15.25,16.21,30.9,29.84,13.08c8.25-10.8,10.74-28.42,13.34-41.22C346.12,283.09,346.57,250.61,341.94,218.92z M599.45,170.15 c-6.85-9.66-22.56-15.05-31.71-4.27c-12.41,14.63-22.74,30.25-31.43,46.59c1.34-30.85-1.81-66.66-33.77-59.27 c-17.32,4.01-25.3,21.42-32.4,35.98c-5.77,11.84-10.92,23.99-15.62,36.3c-2.09-25.72-6.36-52.73-24.08-70.69 c-18.29-18.54-47.03,9.87-28.74,28.41c8.69,8.81,9.22,22.73,10.77,34.45c2.41,18.22,3.98,36.58,4.98,54.93 c1.87,34.44,1.25,68.88-1.38,103.26c-1.73,22.51,35.17,27.98,39.66,5.6c6.7-33.43,13.44-66.9,22.74-99.72 c4.45-15.7,9.46-31.25,15.37-46.46c-0.33,14.43-0.68,28.87-1.08,43.3c-0.95,34.27-2.11,68.54-3.43,102.79 c-0.85,22.21,36.3,28.46,39.66,5.6c7.55-51.33,16.53-105.7,40.64-152.28c-0.56,16.42-1.16,32.83-1.81,49.25 c-1.43,36-3.08,71.98-4.91,107.96c-1.33,25.99,39.09,26.16,40.41,0.23c2.08-40.78,3.92-81.56,5.47-122.36 C609.94,238.88,618.58,197.12,599.45,170.15z M658.07,162.37c-5.9,75.96-11.8,151.92-17.69,227.88 c-2.01,25.94,38.41,26.05,40.41,0.23c5.9-75.96,11.79-151.92,17.69-227.87C700.49,136.66,660.07,136.55,658.07,162.37z M691.11,73.4 c-0.14-0.09-0.26-0.19-0.41-0.28c-3.7-2.28-8.08-3.53-12.43-3.6c-4.34-0.07-8.78,1-12.57,3.15c-3.28,1.86-7.3,5.38-8.84,8.93 c-1.85,3.14-2.78,6.54-2.82,10.18c-0.01,3.65,0.89,7.05,2.7,10.21c3.65,6.33,10.2,9.82,17.39,10.11c3.44,0.13,6.88,0.27,10.31,0.4 c5.07,0.2,10.76-2.31,14.32-5.84c3.52-3.48,6.2-9.22,6-14.25C704.43,83.44,699.02,76.21,691.11,73.4z M874.13,241.41 c-3.61-29.09-9.18-88.99-53.5-79.78c-23.37,4.86-38.54,28.32-48.57,52.06c-1.01-11.58-2.11-23.15-3.38-34.71 c-2.81-25.55-43.25-26.08-40.41-0.23c6.79,61.82,9.88,123.88,9.31,186.04c-0.35,7.01-0.48,14.04-0.3,21.09 c0.65,25.96,39.82,26.31,40.41,0.23c0.13-5.84,0.18-11.68,0.25-17.52c1.32-29.51,7.47-58.15,15.06-86.92 c3.61-13.68,7.11-27.48,11.86-40.81c4.76-13.36,13.16-22.7,19.45-34.84c1.04-0.6,1.84-1.12,2.5-1.6c0.47,1.1,0.85,2.23,1.13,3.41 c0.48,6.81,2.94,14.18,3.99,20.99c2.63,17.09,4.43,34.3,5.59,51.55c2.39,35.78,1.7,71.59-1.51,107.29 c-2.33,25.9,38.1,25.98,40.41,0.23C880.81,339.05,880.17,290.09,874.13,241.41z M1019.36,522.36 c-15.86,43.2-42.92,95.82-95.32,98.42c-55.96,2.78-70.78-50.82-68.94-96.25c1.05-25.97,41.47-25.78,40.41,0.23 c-0.64,15.7-3.3,40.35,10.81,51.31c16.15,12.54,37.45-1.83,48-14.69c24.49-29.86,35.45-72.78,42.12-110 c6.06-33.82,7.96-68.08,8.23-102.46c-3.9,8.93-8.08,17.73-12.63,26.33c-11.14,21.08-31.51,39.23-56.85,30.77 c-23.23-7.75-31.48-33.32-34.34-55.17c-7.28-55.59,5.08-117.09,37.92-163.25c14.58-20.5,38.46-35.33,63.49-22.75 c6.66,3.35,11.92,7.71,16.14,12.76c11.64-3.44,25.54,2.51,25.14,18.59C1040.83,304.38,1057.54,418.36,1019.36,522.36z M996.9,236.26 c-1.02-2.15-1.72-4.57-1.98-7.29c-0.7-7.4-1.15-18.23-6.49-24.05c-6.81-7.42-11.67-0.99-16.39,5.5 c-9.54,13.12-16.62,28.76-21.84,44.05c-10.31,30.24-15.18,65.23-8.64,96.87c0.38,1.82,3.08,16.35,6.55,16.57 c3.23,0.21,9.11-13.17,10.34-15.58c8.29-16.3,14.94-33.58,20.87-50.86C986.65,280.15,992.53,258.36,996.9,236.26z M1792.54,472.68 c-214.99-16.64-430.83-15.39-645.66,2.88c-25.8,2.19-16.9,41.65,8.72,39.47c211.13-17.95,423.62-18.34,634.86-1.99 C1816.4,515.05,1818.47,474.69,1792.54,472.68z M1728.98,67.45c-194.19-13.93-389.07-11.47-582.91,6.58 c-25.8,2.4-16.92,41.86,8.72,39.47c190.16-17.71,381.63-19.36,572.11-5.7C1752.85,109.67,1754.93,69.31,1728.98,67.45z" fill="#F6998D"/></g></svg>