<?xml version="1.0" encoding="UTF-8"?><svg xmlns="http://www.w3.org/2000/svg" xmlns:xlink="http://www.w3.org/1999/xlink" height="33.6" preserveAspectRatio="xMidYMid meet" version="1.0" viewBox="-0.5 -1.2 389.5 33.6" width="389.5" zoomAndPan="magnify"><g id="change1_1"><path d="m146.86 750.11c5.8094-3.4856 6.2365-6.1154 5.9952-12.148-0.23665-5.9163-4.1809-9.3084-9.4662-11.359s-11.438-0.39441-14.199 2.9976c-2.8249 3.4706-2.6032 7.0996 0.15776 9.6239 1.8639 1.7042 4.0231 0 3.9442-1.5777-0.10867-2.1734-4.5753-1.6566-1.2622-5.2064 2.2432-2.4035 6.8629-2.1299 9.3084 0.63107s3.7728 7.7405 0.47332 10.413c-9.545 7.7307-21.22-4.1809-30.292-4.102s-13.931 9.3865-25.559 8.9928c-21.094-0.71418-34.709-19.563-59.006-19.721-11.518-0.07529-28.881 16.03-37.549 17.67-20.431 3.8653-31.633-10.097-32.185-9.7817s12.7 15.304 32.816 12.306c9.7229-1.4489 27.605-16.446 37.865-16.092 22.877 0.78883 34.431 17.889 57.428 20.037 11.866 1.1081 18.932-6.863 26.821-7.0996s21.299 12.464 34.709 4.4175z" fill="inherit" transform="translate(42.792 -725.71)"/><path d="m155.99 750.11c-5.8094-3.4856-6.2365-6.1154-5.9952-12.148 0.23665-5.9163 4.1809-9.3084 9.4661-11.359s11.438-0.39441 14.199 2.9976c2.8249 3.4706 2.6032 7.0996-0.15776 9.6239-1.8639 1.7042-4.0231 0-3.9442-1.5777 0.10868-2.1734 4.5753-1.6566 1.2622-5.2064-2.2432-2.4035-6.8629-2.1299-9.3084 0.63107s-3.7728 7.7405-0.4733 10.413c9.545 7.7307 21.22-4.1809 30.292-4.102s13.931 9.3865 25.559 8.9928c21.094-0.71418 34.709-19.563 59.006-19.721 11.518-0.07529 28.881 16.03 37.549 17.67 20.431 3.8653 31.633-10.097 32.185-9.7817s-12.7 15.304-32.816 12.306c-9.7229-1.4489-27.605-16.446-37.865-16.092-22.877 0.78883-34.431 17.889-57.428 20.037-11.866 1.1081-18.932-6.863-26.821-7.0996s-21.299 12.464-34.709 4.4175z" fill="inherit" transform="translate(42.792 -725.71)"/><path d="m11.788 739.02c-4.08 2.448-4.3799 4.2948-4.2104 8.5317 0.1662 4.155 2.9362 6.5373 6.6481 7.9777s8.0331 0.277 9.9721-2.1052c1.9839-2.4374 1.8282-4.9861-0.1108-6.7589-1.309-1.1968-2.8254 0-2.77 1.108 0.07632 1.5264 3.2132 1.1634 0.88641 3.6564-1.5754 1.688-4.8198 1.4958-6.5373-0.4432s-2.6496-5.4362-0.33241-7.3129c6.7035-5.4293 20.831 10.969 37.894 11.08 8.0891 0.05288 20.283-11.258 26.371-12.41 14.349-2.7146 22.216 7.0913 22.603 6.8697s-8.9195-10.748-23.047-8.6425c-6.8284 1.0176-19.387 11.55-26.592 11.302-16.066-0.55401-31.357-18.504-40.775-12.853z" fill="inherit" transform="translate(42.792 -725.71)"/><path d="m288.63 739.02c4.08 2.448 4.3799 4.2948 4.2105 8.5317-0.16622 4.155-2.9362 6.5373-6.6481 7.9777s-8.0331 0.277-9.9721-2.1052c-1.9839-2.4374-1.8282-4.9861 0.11081-6.7589 1.309-1.1968 2.8254 0 2.77 1.108-0.07632 1.5264-3.2132 1.1634-0.88642 3.6564 1.5754 1.688 4.8199 1.4958 6.5373-0.4432s2.6496-5.4362 0.33241-7.3129c-6.7035-5.4293-20.831 10.969-37.894 11.08-8.0891 0.05288-20.283-11.258-26.371-12.41-14.349-2.7146-22.216 7.0913-22.603 6.8697s8.9195-10.748 23.047-8.6425c6.8284 1.0176 19.387 11.55 26.592 11.302 16.066-0.55401 31.357-18.504 40.775-12.853z" fill="inherit" transform="translate(42.792 -725.71)"/></g></svg>