<?xml version="1.0" encoding="UTF-8"?><svg xmlns="http://www.w3.org/2000/svg" xmlns:xlink="http://www.w3.org/1999/xlink" height="400.6" preserveAspectRatio="xMidYMid meet" version="1.0" viewBox="0.0 0.0 400.6 400.6" width="400.6" zoomAndPan="magnify"><g id="change1_1"><path d="M398.11,361.3l-27.32-27.32l21.13-21.13c0.76-0.74,1.36-1.68,1.69-2.77c1.03-3.41-0.9-7.01-4.31-8.04l-59.6-18.05 c0.05-0.89,0.08-1.76,0.08-2.61V48.41c0-13.32-5.45-25.42-14.22-34.19C306.8,5.45,294.69,0,281.38,0H48.41 C35.09,0,22.98,5.45,14.22,14.22C5.45,22.98,0,35.09,0,48.41v232.97c0,13.32,5.45,25.42,14.22,34.19s20.87,14.22,34.19,14.22h232.97 c0.83,0,1.71-0.04,2.61-0.09l18.04,59.56c0.29,1,0.84,1.94,1.63,2.73c2.52,2.52,6.6,2.52,9.12,0l21.2-21.2l27.32,27.32 c2.52,2.52,6.6,2.52,9.12,0l27.7-27.7C400.63,367.9,400.63,363.81,398.11,361.3z M48.41,316.88c-9.76,0-18.63-4-25.07-10.43 c-6.44-6.44-10.43-15.31-10.43-25.07V48.4c0-9.76,4-18.64,10.43-25.07C29.77,16.9,38.65,12.9,48.41,12.9h232.97 c9.76,0,18.63,4,25.07,10.43c6.44,6.44,10.43,15.31,10.43,25.07v231.7l-41.23-12.49v0c-1.18-0.35-2.46-0.38-3.73,0 c-3.41,1.03-5.34,4.63-4.31,8.04l12.49,41.23H48.41z M365.86,384.43l-27.32-27.32c-2.52-2.52-6.6-2.52-9.12,0l-18.15,18.15 l-27.81-91.81l91.81,27.81l-18.15,18.15c-2.52,2.52-2.52,6.6,0,9.12l27.32,27.32L365.86,384.43z M195.7,73.33v52.47 c0,8.05-3.55,15.34-9.25,20.6c-5.56,5.13-13.2,8.31-21.57,8.31c-8.37,0-16-3.19-21.57-8.31c-5.7-5.26-9.25-12.55-9.25-20.6V73.33 c0-3.56,2.89-6.45,6.45-6.45s6.45,2.89,6.45,6.45v52.47c0,4.31,1.94,8.25,5.06,11.13c3.27,3.01,7.82,4.88,12.85,4.88 c5.03,0,9.59-1.87,12.85-4.88c3.12-2.88,5.06-6.82,5.06-11.13V73.33h0c0-3.56,2.89-6.45,6.45-6.45S195.7,69.76,195.7,73.33z M211.25,76.07c-1.52-3.21-0.14-7.05,3.07-8.57s7.05-0.14,8.57,3.07l18.55,39.24l18.55-39.24h0c1.52-3.21,5.35-4.59,8.57-3.07 c3.21,1.52,4.59,5.35,3.07,8.57l-23.8,50.35c0.04,0.28,0.06,0.56,0.06,0.85v21c0,3.56-2.89,6.45-6.45,6.45s-6.45-2.89-6.45-6.45v-21 c0-0.29,0.03-0.57,0.06-0.85L211.25,76.07z M186.25,183.74c-5.56-5.36-13.1-8.67-21.36-8.67c-8.45,0-16.15,3.46-21.75,9.06 l-0.03,0.03c-5.57,5.59-9.03,13.28-9.03,21.73v26.21c0,8.45,3.47,16.16,9.05,21.77c5.58,5.58,13.29,9.05,21.77,9.05 c8.48,0,16.19-3.47,21.77-9.05c5.58-5.58,9.05-13.29,9.05-21.77v-26.21c0-8.48-3.47-16.19-9.05-21.77L186.25,183.74z M182.81,232.09 c0,4.92-2.02,9.4-5.27,12.65s-7.73,5.27-12.65,5.27v0c-4.92,0-9.4-2.02-12.65-5.27h-0.03c-3.23-3.23-5.24-7.71-5.24-12.65v-26.21 c0-4.94,2.01-9.42,5.24-12.65l0.03-0.03c3.23-3.23,7.71-5.24,12.65-5.24c4.79,0,9.16,1.89,12.36,4.96l0.28,0.31 c3.25,3.25,5.27,7.73,5.27,12.65V232.09z M269.3,261.84c-2.98,1.93-6.96,1.09-8.89-1.89l-18.97-29.18l-18.69,28.74 c-1.09,2.02-3.22,3.39-5.68,3.39c-3.56,0-6.45-2.89-6.45-6.45v-74.94h0c0-3.56,2.89-6.45,6.45-6.45s6.45,2.89,6.45,6.45v53.23 l12.53-19.26c1.93-2.98,5.92-3.82,8.89-1.89c0.81,0.52,1.46,1.2,1.94,1.96l12.48,19.19v-53.23c0-3.56,2.89-6.45,6.45-6.45 s6.45,2.89,6.45,6.45v74.94C272.23,258.55,271.19,260.61,269.3,261.84z M119.16,92.06c0-6.93-2.83-13.23-7.39-17.79 c-4.56-4.56-10.86-7.39-17.79-7.39h-30c-3.56,0-6.45,2.89-6.45,6.45v74.94c0,3.56,2.89,6.45,6.45,6.45h30 c6.91,0,13.2-2.84,17.79-7.39c4.56-4.56,7.39-10.86,7.39-17.79c0-6.91-2.84-13.2-7.39-17.79l-1.01-0.96l1-0.94v0 C116.33,105.29,119.16,98.99,119.16,92.06z M102.65,138.2v0.03c-2.21,2.21-5.28,3.59-8.67,3.59H70.43v-24.57h23.55 c3.37,0,6.44,1.39,8.67,3.61h0.03c2.21,2.21,3.59,5.28,3.59,8.67C106.26,132.9,104.88,135.97,102.65,138.2z M102.65,100.73v0.03 c-2.21,2.21-5.28,3.59-8.67,3.59H70.43V79.78h23.55c3.37,0,6.44,1.39,8.67,3.61c2.23,2.23,3.61,5.3,3.61,8.67 C106.26,95.43,104.88,98.51,102.65,100.73z M119.16,181.51v74.94c-0.02,2.1-1.06,4.16-2.95,5.39c-2.98,1.93-6.96,1.09-8.89-1.89 l-36.89-56.73v53.22c0,3.56-2.89,6.45-6.45,6.45s-6.45-2.89-6.45-6.45v-74.94c0-3.56,2.89-6.45,6.45-6.45 c2.45,0,4.59,1.37,5.68,3.39l36.61,56.29v-53.23c0-3.56,2.89-6.45,6.45-6.45S119.16,177.95,119.16,181.51z"/></g></svg>